<?xml version="1.0" encoding="UTF-8" standalone="no"?>
<!-- Created with VectorDraw -->
<svg 
 	 width = "595.000000" 
 	 height = "841.000000" 
xmlns:dc="http://purl.org/dc/elements/1.1/"
xmlns:cc="http://web.resource.org/cc/"
xmlns:rdf="http://www.w3.org/1999/02/22-rdf-syntax-ns#"
 xmlns:svg="http://www.w3.org/2000/svg"
 xmlns="http://www.w3.org/2000/svg" 
 xmlns:sodipodi="http://inkscape.sourceforge.net/DTD/sodipodi-0.dtd"
 xmlns:inkscape="http://www.inkscape.org/namespaces/inkscape"
 >
<g inkscape:label="Background" inkscape:groupmode="layer" id="Background">
<path  style="fill:#ffffff;fill-opacity:1.000000;stroke:none;" 
 d="M 46.492035,8.050125 C 46.492035,8.050125 40.728027,8.050125 40.728027,8.050125 C 39.588028,8.050125 38.663025,8.974125 38.663025,10.115124 C 38.663025,10.115124 37.659027,12.180124 37.659027,12.180124 C 37.659027,12.180124 11.337029,12.180124 11.337029,12.180124 C 10.196030,12.180124 9.272034,13.105125 9.272034,14.246124 C 9.272034,14.735125 9.368034,15.188126 9.505028,15.588125 C 9.505028,15.588125 13.663033,27.270126 13.663033,27.270126 C 14.106033,28.422127 14.845032,29.295124 15.985031,29.295124 C 15.985031,29.295124 34.672028,29.295124 34.672028,29.295124 C 35.813034,29.295124 36.681030,28.269127 37.026031,27.249123 C 37.026031,27.249123 42.225037,12.180124 42.225037,12.180124 C 42.225037,12.180124 46.492035,12.180124 46.492035,12.180124 C 47.633026,12.180124 48.558029,11.256126 48.558029,10.115124 C 48.558029,8.974125 47.633026,8.050125 46.492035,8.050125 C 46.492035,8.050125 46.492035,8.050125 46.492035,8.050125  z"  />
</g>
</svg>
