<?xml version="1.0" encoding="utf-8"?>
<!-- Generator: Adobe Illustrator 16.0.0, SVG Export Plug-In . SVG Version: 6.00 Build 0)  -->
<!DOCTYPE svg PUBLIC "-//W3C//DTD SVG 1.1//EN" "http://www.w3.org/Graphics/SVG/1.1/DTD/svg11.dtd">
<svg version="1.1" id="Layer_1" xmlns="http://www.w3.org/2000/svg" xmlns:xlink="http://www.w3.org/1999/xlink" x="0px" y="0px"
	 width="42px" height="42px" viewBox="0 0 42 42" enable-background="new 0 0 42 42" xml:space="preserve">
<g id="Layer_2">
	<path fill="#FFFFFF" d="M39.285,7.597h-5.764c-1.141,0-2.065,0.924-2.065,2.065l-1.004,2.065H4.13
		c-1.141,0-2.065,0.925-2.065,2.066c0,0.489,0.096,0.942,0.233,1.342l4.158,11.682c0.443,1.152,1.182,2.025,2.322,2.025h18.687
		c1.141,0,2.01-1.025,2.354-2.046l5.199-15.069h4.268c1.141,0,2.066-0.924,2.066-2.065C41.352,8.521,40.426,7.597,39.285,7.597z"/>
	<circle fill="#FFFFFF" cx="7.918" cy="33.735" r="3.153"/>
	<circle fill="#FFFFFF" cx="28.413" cy="33.735" r="3.153"/>
</g>
</svg>
