<?xml version="1.0" encoding="utf-8"?>
<!-- Generator: Adobe Illustrator 16.0.0, SVG Export Plug-In . SVG Version: 6.00 Build 0)  -->
<!DOCTYPE svg PUBLIC "-//W3C//DTD SVG 1.1//EN" "http://www.w3.org/Graphics/SVG/1.1/DTD/svg11.dtd">
<svg version="1.1" xmlns="http://www.w3.org/2000/svg" xmlns:xlink="http://www.w3.org/1999/xlink" x="0px" y="0px" width="400px"
	 height="800px" viewBox="0 0 400 800" enable-background="new 0 0 400 800" xml:space="preserve">
<g id="Layer_1">
	
		<rect x="27.791" y="29.433" transform="matrix(-0.7072 0.707 -0.707 -0.7072 82.2719 52.4745)" fill="#FFFFFF" width="4.958" height="27.68"/>
	
		<rect x="27.788" y="13.403" transform="matrix(0.7072 0.7071 -0.7071 0.7072 28.1256 -13.4226)" fill="#FFFFFF" width="4.958" height="27.679"/>
	<path fill="#BCBEC0" d="M77.843,17.852c-3.515-3.515-9.213-3.515-12.728,0c-3.515,3.515-3.515,9.213,0,12.729
		c3.515,3.514,9.213,3.514,12.728,0C81.357,27.065,81.357,21.367,77.843,17.852z M66.265,29.43c-2.88-2.879-2.881-7.549,0-10.429
		c2.88-2.88,7.55-2.88,10.43,0c2.881,2.881,2.88,7.55,0,10.429C73.813,32.311,69.146,32.311,66.265,29.43z"/>
	
		<rect x="75.648" y="32.751" transform="matrix(-0.7071 -0.7071 0.7071 -0.7071 114.7832 115.9212)" fill="#BCBEC0" width="11.504" height="2.874"/>
</g>
<g id="Layer_2">
	<path fill="#FFFFFF" d="M133.285,12.597h-5.764c-1.14,0-2.065,0.924-2.065,2.065l-1.004,2.065H98.13
		c-1.141,0-2.065,0.925-2.065,2.066c0,0.489,0.096,0.942,0.233,1.342l4.158,11.682c0.443,1.152,1.182,2.025,2.322,2.025h18.687
		c1.141,0,2.009-1.026,2.354-2.046l5.199-15.069h4.267c1.141,0,2.066-0.924,2.066-2.065S134.426,12.597,133.285,12.597z"/>
	<circle fill="#FFFFFF" cx="101.918" cy="38.735" r="3.153"/>
	<circle fill="#FFFFFF" cx="122.413" cy="38.735" r="3.153"/>
</g>
</svg>
