<?xml version="1.0" encoding="utf-8"?>
<!-- Generator: Adobe Illustrator 16.0.0, SVG Export Plug-In . SVG Version: 6.00 Build 0)  -->
<!DOCTYPE svg PUBLIC "-//W3C//DTD SVG 1.1//EN" "http://www.w3.org/Graphics/SVG/1.1/DTD/svg11.dtd">
<svg version="1.1" id="Layer_1" xmlns="http://www.w3.org/2000/svg" xmlns:xlink="http://www.w3.org/1999/xlink" x="0px" y="0px"
	 width="512px" height="512px" viewBox="0 0 512 512" enable-background="new 0 0 512 512" xml:space="preserve">
<image display="none" overflow="visible" width="708" height="496" xlink:href="../../Desktop/TrainShopping/DeutscheBahn.gif"  transform="matrix(0.5181 0 0 0.5181 94.1523 162.999)">
</image>
<path fill="#1A3B69" d="M466.564,3.001H44.287c-22.801,0-41.285,18.484-41.285,41.285v422.276c0,22.804,18.484,41.286,41.285,41.286
	h422.278c22.801,0,41.285-18.482,41.285-41.286V44.287C507.85,21.486,489.365,3.001,466.564,3.001z M474.36,449.729
	c0,13.109-10.626,23.734-23.735,23.734H62.743c-13.107,0-23.734-10.625-23.734-23.734V61.838c0-13.108,10.626-23.734,23.734-23.734
	h387.882c13.109,0,23.735,10.626,23.735,23.734V449.729z"/>
<text transform="matrix(1 0 0 1 61.2783 371.2041)" fill="#1A3B69" font-family="'Helvetica-Bold'" font-size="319.0439">T</text>
<text transform="matrix(1 0 0 1 255.6167 367.249)" fill="#1A3B69" font-family="'Helvetica-Bold'" font-size="304.2802">S</text>
</svg>
